<svg width="535" height="716" viewBox="0 0 535 716" fill="none" xmlns="http://www.w3.org/2000/svg">
<g filter="url(#filter0_d_61_1230)">
<rect x="4" width="389.795" height="582.344" rx="15" fill="white"/>
<rect x="4.5" y="0.5" width="388.795" height="581.344" rx="14.5" stroke="black" stroke-opacity="0.3"/>
<path d="M41.7092 30.7133V32.4066H35.8322V37.4867H33.7404V32.4066H27.9299V30.7133H41.7092ZM40.4807 23.1762V24.8363H36.0812C36.2888 26.3139 37.9572 27.7997 41.0617 28.1732L40.298 29.8334C37.6418 29.4765 35.7409 28.3393 34.8361 26.7787C33.9064 28.3393 32.0222 29.4765 29.3908 29.8334L28.6105 28.1732C31.6652 27.7997 33.3503 26.3139 33.591 24.8363H29.175V23.1762H40.4807ZM56.4348 29.85V31.5268H50.7404V34.1332H48.6486V31.5268H42.6057V29.85H56.4348ZM54.6584 23.0434V28.6049H44.3322V23.0434H54.6584ZM46.4074 24.6869V26.9613H52.5832V24.6869H46.4074ZM54.9074 35.5277V37.2211H44.2326V32.8217H46.341V35.5277H54.9074ZM69.2346 22.3793V28.2895H71.4592V30.0326H69.2346V37.4867H67.1428V22.3793H69.2346ZM66.1135 24.6371V26.3305H57.2316V24.6371H60.6516V22.6117H62.7766V24.6371H66.1135ZM61.7141 27.1772C63.9221 27.1772 65.5656 28.6713 65.5656 30.7797C65.5656 32.8881 63.9221 34.3822 61.7141 34.3822C59.4894 34.3822 57.8459 32.8881 57.8459 30.7797C57.8459 28.6713 59.4894 27.1772 61.7141 27.1772ZM61.7141 28.8871C60.6516 28.9037 59.8713 29.6176 59.8713 30.7797C59.8713 31.9584 60.6516 32.6557 61.7141 32.6391C62.7766 32.6557 63.5402 31.9584 63.5402 30.7797C63.5402 29.6176 62.7766 28.9037 61.7141 28.8871ZM84.7072 22.3793V37.4867H82.5656V22.3793H84.7072ZM80.175 23.9565C80.175 28.5385 78.5646 32.3402 73.1691 34.8969L72.0568 33.2035C75.9582 31.3607 77.6765 28.9701 78.0168 25.6166H72.8703V23.9565H80.175Z" fill="black"/>
<path d="M34.6888 297.972C34.6741 299.715 36.8128 301.356 39.3909 301.692L38.8489 302.835C36.7029 302.491 34.8133 301.378 33.971 299.832C33.1068 301.385 31.2244 302.491 29.0931 302.835L28.5364 301.692C31.1146 301.356 33.2239 299.73 33.2386 297.972V297.254H34.6888V297.972ZM39.9329 304.124V305.267H34.6009V309.94H33.2386V305.267H27.9651V304.124H39.9329ZM53.1605 298.777V299.935H51.2415V301.546H53.1605V302.703H51.2415V304.754H49.8499V296.829H51.2415V298.777H53.1605ZM47.4329 297.62V301.297H42.8626V302.894C45.1404 302.886 46.7518 302.806 48.6634 302.483L48.8099 303.611C46.7737 303.978 45.0452 304.051 42.5257 304.036H41.471V300.228H46.0706V298.748H41.4564V297.62H47.4329ZM46.9935 305.076C49.6888 305.076 51.3587 305.984 51.3587 307.508C51.3587 309.031 49.6888 309.91 46.9935 309.91C44.2542 309.91 42.5843 309.031 42.5843 307.508C42.5843 305.984 44.2542 305.076 46.9935 305.076ZM46.9935 306.175C45.0745 306.175 43.9466 306.658 43.9466 307.508C43.9466 308.357 45.0745 308.856 46.9935 308.841C48.8978 308.856 49.9964 308.357 49.9964 307.508C49.9964 306.658 48.8978 306.175 46.9935 306.175Z" fill="black"/>
<rect x="180.612" y="333.939" width="57.7041" height="26.0039" rx="6.5" fill="white" stroke="#E7E7E7"/>
<path d="M39.9329 445.602V446.73H27.9651V445.602H33.2532V444.093H34.6302V445.602H39.9329ZM34.6302 438.864V440.123H38.7318V441.237H34.7181C34.8646 442.504 36.681 443.456 39.2884 443.668L38.8636 444.738C36.5931 444.525 34.7547 443.764 33.9417 442.54C33.1214 443.764 31.283 444.525 29.0345 444.738L28.595 443.668C31.1878 443.456 33.0042 442.504 33.1653 441.237H29.1663V440.123H33.2532V438.864H34.6302ZM33.9417 447.594C36.7982 447.594 38.4681 448.37 38.4681 449.791C38.4681 451.212 36.7982 451.989 33.9417 451.974C31.0706 451.989 29.386 451.212 29.386 449.791C29.386 448.37 31.0706 447.594 33.9417 447.594ZM33.9417 448.634C31.9202 448.634 30.7923 449.044 30.7923 449.791C30.7923 450.538 31.9202 450.934 33.9417 450.919C35.9339 450.934 37.0765 450.538 37.0765 449.791C37.0765 449.044 35.9339 448.634 33.9417 448.634ZM55.0794 439.537V440.534C55.0794 441.566 55.0794 442.738 54.7425 444.328H56.6028V445.47H44.5911V444.328H53.3362C53.6878 442.797 53.7025 441.676 53.7025 440.68H46.0999V439.537H55.0794ZM55.0941 447.14V451.842H46.056V447.14H55.0941ZM47.4183 448.239V450.714H53.7171V448.239H47.4183ZM60.6751 439.684C62.4183 439.684 63.6927 440.988 63.6927 442.833C63.6927 444.679 62.4183 445.939 60.6751 445.939C58.9173 445.939 57.6575 444.679 57.6722 442.833C57.6575 440.988 58.9173 439.684 60.6751 439.684ZM60.6751 440.885C59.6497 440.885 58.9173 441.661 58.9173 442.833C58.9173 443.976 59.6497 444.782 60.6751 444.767C61.6859 444.782 62.4183 443.976 62.4329 442.833C62.4183 441.661 61.6859 440.885 60.6751 440.885ZM68.7464 438.893V446.715H67.428V443.331H65.9046V446.627H64.6009V439.127H65.9046V442.203H67.428V438.893H68.7464ZM68.7464 447.389V452.003H67.3694V448.502H59.8255V447.389H68.7464Z" fill="black"/>
<path d="M35.4212 398.972V400.1H34.1761V404.216C34.7986 404.165 35.4066 404.106 35.9925 404.04L36.0804 405.08C33.429 405.505 30.3821 405.564 28.1263 405.564L27.9651 404.421L29.5765 404.407V400.1H28.3314V398.972H35.4212ZM38.2776 397.8V401.682H40.1819V402.854H38.2776V407.453H36.886V397.8H38.2776ZM38.8343 409.504V410.632H29.9573V406.531H31.3489V409.504H38.8343ZM30.9241 404.363C31.5467 404.355 32.1766 404.333 32.8138 404.289V400.1H30.9241V404.363ZM52.223 397.786V410.911H50.89V404.07H49.264V410.266H47.9456V398.035H49.264V402.927H50.89V397.786H52.223ZM46.4661 399.265V407.453H41.3685V399.265H46.4661ZM42.6868 400.364V406.34H45.1624V400.364H42.6868ZM64.1175 397.786V403.015H66.1536V404.172H64.1175V410.896H62.7259V397.786H64.1175ZM60.6898 399.162C60.6751 402.956 59.0052 406.34 54.6839 408.479L53.9075 407.395C57.1961 405.754 58.9832 403.381 59.2689 400.32H54.5667V399.162H60.6898ZM77.4622 401.33V402.458H68.4534V398.02H69.8304V401.33H77.4622ZM78.8392 403.85V404.993H66.8568V403.85H78.8392ZM72.8333 406.062C75.6605 406.062 77.3597 406.926 77.3597 408.45C77.3597 409.988 75.6605 410.852 72.8333 410.852C69.9915 410.852 68.2776 409.988 68.2776 408.45C68.2776 406.926 69.9915 406.062 72.8333 406.062ZM72.8333 407.146C70.8265 407.161 69.6839 407.6 69.6839 408.45C69.6839 409.285 70.8265 409.783 72.8333 409.783C74.8109 409.783 75.9681 409.285 75.9681 408.45C75.9681 407.6 74.8109 407.161 72.8333 407.146Z" fill="black"/>
<path d="M340.894 409.812C338.433 409.812 336.998 407.834 336.998 404.363C336.998 400.92 338.462 398.913 340.894 398.913C343.326 398.913 344.791 400.92 344.791 404.363C344.791 407.834 343.34 409.812 340.894 409.812ZM340.894 408.42C342.33 408.42 343.179 407.014 343.179 404.363C343.179 401.726 342.315 400.276 340.894 400.276C339.473 400.276 338.609 401.726 338.609 404.363C338.609 407.014 339.458 408.42 340.894 408.42ZM356.919 397.8V407.746H355.528V406.487H352.891V405.505H355.528V397.8H356.919ZM357.242 409.504V410.632H347.764V406.78H349.141V409.504H357.242ZM345.948 403.791C348.379 403.777 351.646 403.747 354.444 403.396L354.532 404.392C353.411 404.575 352.232 404.7 351.075 404.773V407.336H349.683V404.846C348.409 404.905 347.186 404.912 346.124 404.905L345.948 403.791ZM350.24 398.298C352.159 398.298 353.492 399.221 353.492 400.613C353.492 402.004 352.159 402.898 350.24 402.898C348.292 402.898 346.973 402.004 346.973 400.613C346.973 399.221 348.292 398.298 350.24 398.298ZM350.24 399.338C349.068 399.324 348.277 399.822 348.292 400.613C348.277 401.389 349.068 401.872 350.24 401.872C351.368 401.872 352.159 401.389 352.173 400.613C352.159 399.822 351.368 399.324 350.24 399.338Z" fill="black"/>
<path d="M342.068 450.905C339.607 450.905 338.172 448.927 338.172 445.455C338.172 442.013 339.636 440.006 342.068 440.006C344.5 440.006 345.965 442.013 345.965 445.455C345.965 448.927 344.514 450.905 342.068 450.905ZM342.068 449.513C343.504 449.513 344.353 448.107 344.353 445.455C344.353 442.819 343.489 441.369 342.068 441.369C340.647 441.369 339.783 442.819 339.783 445.455C339.783 448.107 340.633 449.513 342.068 449.513ZM358.094 438.893V448.839H356.702V447.579H354.065V446.598H356.702V438.893H358.094ZM358.416 450.597V451.725H348.938V447.872H350.315V450.597H358.416ZM347.122 444.884C349.553 444.87 352.82 444.84 355.618 444.489L355.706 445.485C354.585 445.668 353.406 445.792 352.249 445.866V448.429H350.857V445.939C349.583 445.997 348.36 446.005 347.298 445.997L347.122 444.884ZM351.414 439.391C353.333 439.391 354.666 440.314 354.666 441.705C354.666 443.097 353.333 443.991 351.414 443.991C349.466 443.991 348.147 443.097 348.147 441.705C348.147 440.314 349.466 439.391 351.414 439.391ZM351.414 440.431C350.242 440.416 349.451 440.914 349.466 441.705C349.451 442.482 350.242 442.965 351.414 442.965C352.542 442.965 353.333 442.482 353.347 441.705C353.333 440.914 352.542 440.416 351.414 440.431Z" fill="black"/>
<path d="M197.413 349.961L197.4 349.123L200.536 345.823C201.628 344.667 202.148 344.045 202.148 343.195C202.148 342.255 201.348 341.633 200.32 341.633C199.228 341.633 198.53 342.331 198.53 343.36H197.451C197.438 341.735 198.695 340.643 200.358 340.643C202.021 340.643 203.214 341.76 203.214 343.195C203.214 344.223 202.732 345.023 201.107 346.699L199 348.87V348.946H203.38V349.961H197.413ZM208.039 350.088C206.376 350.088 205.119 349.06 205.055 347.651H206.16C206.249 348.476 207.048 349.085 208.039 349.085C209.232 349.085 210.095 348.209 210.095 347.054C210.095 345.861 209.194 344.985 207.963 344.972C207.188 344.959 206.591 345.201 206.249 345.797H205.144L205.792 340.77H210.768V341.786H206.744L206.401 344.477H206.49C206.896 344.16 207.518 343.944 208.166 343.944C209.918 343.944 211.213 345.239 211.213 347.029C211.213 348.806 209.867 350.088 208.039 350.088ZM214.742 345.036C213.548 345.036 212.901 344.147 212.901 342.827C212.901 341.532 213.574 340.63 214.742 340.63C215.948 340.63 216.583 341.532 216.583 342.827C216.583 344.147 215.922 345.036 214.742 345.036ZM214.742 344.248C215.364 344.248 215.656 343.69 215.656 342.827C215.656 341.976 215.389 341.405 214.742 341.417C214.132 341.417 213.828 341.976 213.828 342.827C213.828 343.69 214.132 344.248 214.742 344.248ZM220.353 350.088C219.16 350.101 218.5 349.2 218.512 347.892C218.5 346.584 219.185 345.683 220.353 345.683C221.547 345.683 222.181 346.584 222.181 347.892C222.181 349.2 221.521 350.101 220.353 350.088ZM220.353 349.301C220.963 349.301 221.255 348.743 221.255 347.892C221.255 347.029 220.988 346.457 220.353 346.47C219.744 346.483 219.426 347.029 219.426 347.892C219.426 348.743 219.731 349.301 220.353 349.301ZM213.802 349.961L220.125 340.77H221.153L214.831 349.961H213.802Z" fill="black"/>
<rect x="246.361" y="333.939" width="57.7041" height="26.0039" rx="6.5" fill="white" stroke="#E7E7E7"/>
<path d="M267.331 350.088C265.668 350.088 264.411 349.06 264.348 347.651H265.453C265.541 348.476 266.341 349.085 267.331 349.085C268.525 349.085 269.388 348.209 269.388 347.054C269.388 345.861 268.487 344.985 267.255 344.972C266.481 344.959 265.884 345.201 265.541 345.797H264.437L265.084 340.77H270.061V341.786H266.036L265.694 344.477H265.783C266.189 344.16 266.811 343.944 267.458 343.944C269.21 343.944 270.505 345.239 270.505 347.029C270.505 348.806 269.16 350.088 267.331 350.088ZM275.101 350.088C273.057 350.088 271.889 348.374 271.889 345.366C271.889 342.382 273.082 340.643 275.101 340.643C277.12 340.643 278.313 342.382 278.313 345.366C278.313 348.374 277.132 350.088 275.101 350.088ZM275.101 349.073C276.421 349.073 277.196 347.74 277.196 345.366C277.196 342.992 276.421 341.633 275.101 341.633C273.781 341.633 272.994 342.992 272.994 345.366C272.994 347.74 273.768 349.073 275.101 349.073ZM281.779 345.036C280.585 345.036 279.938 344.147 279.938 342.827C279.938 341.532 280.611 340.63 281.779 340.63C282.985 340.63 283.62 341.532 283.62 342.827C283.62 344.147 282.959 345.036 281.779 345.036ZM281.779 344.248C282.401 344.248 282.693 343.69 282.693 342.827C282.693 341.976 282.426 341.405 281.779 341.417C281.169 341.417 280.865 341.976 280.865 342.827C280.865 343.69 281.169 344.248 281.779 344.248ZM287.39 350.088C286.197 350.101 285.536 349.2 285.549 347.892C285.536 346.584 286.222 345.683 287.39 345.683C288.583 345.683 289.218 346.584 289.218 347.892C289.218 349.2 288.558 350.101 287.39 350.088ZM287.39 349.301C287.999 349.301 288.291 348.743 288.291 347.892C288.291 347.029 288.025 346.457 287.39 346.47C286.781 346.483 286.463 347.029 286.463 347.892C286.463 348.743 286.768 349.301 287.39 349.301ZM280.839 349.961L287.161 340.77H288.19L281.868 349.961H280.839Z" fill="black"/>
<rect x="313.283" y="333.939" width="57.7041" height="26.0039" rx="6.5" fill="white" stroke="#E7E7E7"/>
<path d="M332.782 345.658V347.727C333.867 347.682 334.978 347.587 336.019 347.435L336.095 348.171C333.518 348.641 330.738 348.654 328.707 348.654L328.567 347.828C329.513 347.822 330.63 347.816 331.804 347.778V345.658H332.782ZM335.435 341.189V342.014H332.782C332.807 343.474 334.02 344.661 335.689 345.137L335.219 345.924C333.861 345.518 332.801 344.648 332.299 343.499C331.804 344.712 330.751 345.613 329.392 346.026L328.91 345.264C330.579 344.775 331.754 343.537 331.779 342.014H329.189V341.189H331.804V339.792H332.782V341.189H335.435ZM337.758 339.703V351.015H336.768V339.703H337.758ZM349.387 339.703V350.99H348.435V345.074H346.772V350.406H345.858V339.957H346.772V344.248H348.435V339.703H349.387ZM344.385 341.087V341.912H341.148V347.346C342.703 347.34 343.782 347.283 345.033 347.029L345.122 347.867C343.763 348.146 342.608 348.197 340.881 348.197H340.158V341.087H344.385Z" fill="black"/>
<path d="M39.9329 169.193V170.321H34.6009V174.906H33.2386V170.321H27.9651V169.193H39.9329ZM38.805 162.572V163.685H34.7474C34.7693 165.311 36.7908 166.761 39.2737 167.098L38.761 168.197C36.6077 167.86 34.7474 166.798 33.9564 165.296C33.1434 166.798 31.2903 167.86 29.1663 168.197L28.639 167.098C31.0926 166.761 33.1141 165.311 33.1653 163.685H29.0784V162.572H38.805ZM52.9261 168.431V169.559H47.7112V172.108H46.3343V169.559H40.9144V168.431H52.9261ZM51.3734 162.41V167.069H42.4525V162.41H51.3734ZM43.8148 163.509V165.97H49.9964V163.509H43.8148ZM51.5931 173.514V174.642H42.4085V170.863H43.8001V173.514H51.5931ZM69.5521 169.207V170.35H66.5052V174.92H65.0989V170.35H61.9642V174.92H60.5286V170.35H57.5403V169.207H69.5521ZM63.5169 162.293C66.2855 162.293 68.1898 163.421 68.1898 165.194C68.1898 166.937 66.2855 168.05 63.5169 168.035C60.7337 168.05 58.8441 166.937 58.8441 165.194C58.8441 163.421 60.7337 162.293 63.5169 162.293ZM63.5169 163.406C61.5687 163.421 60.265 164.095 60.2796 165.194C60.265 166.263 61.5687 166.937 63.5169 166.937C65.4651 166.937 66.7689 166.263 66.7689 165.194C66.7689 164.095 65.4651 163.421 63.5169 163.406ZM77.9163 163.172V164.285H70.5335V163.172H73.6097V161.678H74.9866V163.172H77.9163ZM74.2835 164.886C76.056 164.886 77.3011 165.867 77.3157 167.332C77.3011 168.797 76.056 169.764 74.2835 169.764C72.4964 169.764 71.2659 168.797 71.2659 167.332C71.2659 165.867 72.4964 164.886 74.2835 164.886ZM74.2835 165.941C73.2435 165.941 72.5696 166.483 72.5696 167.332C72.5696 168.182 73.2435 168.709 74.2835 168.709C75.3089 168.709 76.012 168.182 76.0267 167.332C76.012 166.483 75.3089 165.941 74.2835 165.941ZM81.4612 161.795V170.247H80.0696V168.563H77.9456V167.435H80.0696V165.985H77.9603V164.857H80.0696V161.795H81.4612ZM77.096 170.379C79.8499 170.379 81.5345 171.199 81.5345 172.635C81.5345 174.056 79.8499 174.906 77.096 174.891C74.3275 174.906 72.6429 174.056 72.6429 172.635C72.6429 171.199 74.3275 170.379 77.096 170.379ZM77.096 171.448C75.2064 171.448 74.0931 171.859 74.0931 172.635C74.0931 173.397 75.2064 173.836 77.096 173.822C78.9417 173.836 80.055 173.397 80.055 172.635C80.055 171.859 78.9417 171.448 77.096 171.448Z" fill="black"/>
<path d="M35.4212 208.771V209.899H34.1761V214.015C34.7986 213.964 35.4066 213.905 35.9925 213.839L36.0804 214.879C33.429 215.304 30.3821 215.363 28.1263 215.363L27.9651 214.22L29.5765 214.205V209.899H28.3314V208.771H35.4212ZM38.2776 207.599V211.481H40.1819V212.653H38.2776V217.252H36.886V207.599H38.2776ZM38.8343 219.303V220.431H29.9573V216.329H31.3489V219.303H38.8343ZM30.9241 214.161C31.5467 214.154 32.1766 214.132 32.8138 214.088V209.899H30.9241V214.161ZM52.223 207.584V220.709H50.89V213.869H49.264V220.065H47.9456V207.833H49.264V212.726H50.89V207.584H52.223ZM46.4661 209.064V217.252H41.3685V209.064H46.4661ZM42.6868 210.162V216.139H45.1624V210.162H42.6868ZM67.7796 207.584V212.814H69.8157V213.971H67.7796V220.695H66.388V207.584H67.7796ZM64.3519 208.961C64.3372 212.755 62.6673 216.139 58.346 218.278L57.5696 217.194C60.8582 215.553 62.6453 213.18 62.931 210.119H58.2288V208.961H64.3519ZM77.4769 208.449C77.4769 208.947 77.4256 209.415 77.3304 209.87H80.0696V207.599H81.4612V215.407H80.0696V213.766H76.7591V212.638H80.0696V210.983H76.9788C76.0926 213.041 74.0784 214.513 71.2366 215.275L70.7093 214.176C73.8294 213.334 75.7264 211.664 75.9827 209.577H71.3978V208.449H77.4769ZM81.4612 215.978V220.68H80.0696V217.077H72.5696V215.978H81.4612Z" fill="black"/>
<line x1="16.915" y1="378.728" x2="380.88" y2="378.728" stroke="#E7E7E7"/>
<rect x="114.864" y="157.827" width="253.776" height="31.8743" rx="6.5" fill="white" stroke="#E7E7E7"/>
<rect x="114.864" y="244.709" width="253.776" height="31.8743" rx="6.5" fill="white" stroke="#E7E7E7"/>
<rect x="114.864" y="201.268" width="253.776" height="31.8743" rx="6.5" fill="#F0F0F0" stroke="#F0F0F0"/>
<rect x="119.06" y="204.29" width="119.756" height="25.8298" rx="5" fill="white"/>
<path d="M161.239 213.868C161.239 215.772 162.483 217.74 164.235 218.489L163.575 219.429C162.236 218.838 161.169 217.588 160.642 216.064C160.116 217.689 159.043 219.073 157.722 219.721L157.024 218.768C158.738 217.969 160.008 215.823 160.02 213.868V212.662H157.418V211.659H163.829V212.662H161.239V213.868ZM166.47 210.516V221.891H165.263V210.516H166.47ZM177.768 210.516V217.283H176.562V214.401H174.442V213.411H176.562V210.516H177.768ZM173.96 217.6C176.346 217.6 177.806 218.388 177.806 219.746C177.806 221.104 176.346 221.879 173.96 221.891C171.573 221.879 170.1 221.104 170.113 219.746C170.1 218.388 171.573 217.6 173.96 217.6ZM173.96 218.54C172.297 218.54 171.306 218.972 171.306 219.746C171.306 220.508 172.297 220.952 173.96 220.939C175.623 220.952 176.613 220.508 176.613 219.746C176.613 218.972 175.623 218.54 173.96 218.54ZM172.36 212.522C172.36 213.97 173.388 215.366 175.102 215.95L174.48 216.902C173.204 216.458 172.265 215.55 171.776 214.427C171.275 215.703 170.278 216.724 168.92 217.22L168.285 216.255C170.05 215.645 171.129 214.109 171.129 212.535V212.281H168.666V211.304H174.798V212.281H172.36V212.522ZM188.382 210.516V215.049H190.146V216.052H188.382V221.879H187.176V210.516H188.382ZM185.411 211.71C185.398 214.998 183.951 217.931 180.206 219.784L179.533 218.845C182.383 217.423 183.932 215.366 184.18 212.713H180.104V211.71H185.411Z" fill="black"/>
<path d="M286.853 213.411C286.84 215.493 288.097 217.575 289.862 218.362L289.138 219.314C287.831 218.692 286.796 217.416 286.269 215.861C285.736 217.524 284.689 218.902 283.324 219.568L282.587 218.553C284.378 217.753 285.634 215.582 285.634 213.411V211.469H286.853V213.411ZM292.096 210.516V221.917H290.89V210.516H292.096ZM297.885 212.611C297.885 214.058 298.888 215.379 300.615 215.925L300.044 216.864C298.749 216.452 297.803 215.595 297.301 214.516C296.806 215.76 295.81 216.744 294.445 217.22L293.823 216.255C295.6 215.671 296.667 214.198 296.679 212.624V212.307H294.178V211.329H300.336V212.307H297.885V212.611ZM302.849 210.516V213.335H304.5V214.325H302.849V217.347H301.643V210.516H302.849ZM299.18 217.626C301.529 217.626 302.951 218.4 302.951 219.733C302.951 221.079 301.529 221.879 299.18 221.866C296.806 221.879 295.359 221.079 295.359 219.733C295.359 218.4 296.806 217.626 299.18 217.626ZM299.18 218.578C297.53 218.578 296.552 218.997 296.565 219.733C296.552 220.495 297.53 220.914 299.18 220.914C300.818 220.914 301.77 220.495 301.77 219.733C301.77 218.997 300.818 218.578 299.18 218.578ZM314.008 210.516V215.049H315.773V216.052H314.008V221.879H312.802V210.516H314.008ZM311.038 211.71C311.025 214.998 309.578 217.931 305.833 219.784L305.16 218.845C308.01 217.423 309.559 215.366 309.806 212.713H305.731V211.71H311.038Z" fill="black"/>
<path d="M133.766 264.38C132.064 264.368 130.287 263.365 130.287 259.962C130.287 256.763 131.671 254.935 133.88 254.935C135.568 254.935 136.749 255.989 136.965 257.449H135.581C135.403 256.7 134.807 256.154 133.88 256.154C132.458 256.154 131.633 257.398 131.633 259.467H131.734C132.229 258.693 133.093 258.223 134.096 258.223C135.733 258.223 137.054 259.48 137.054 261.245C137.054 263.022 135.746 264.393 133.766 264.38ZM133.753 263.212C134.87 263.212 135.695 262.349 135.695 261.27C135.695 260.216 134.895 259.366 133.791 259.366C132.661 259.366 131.81 260.254 131.798 261.283C131.81 262.298 132.623 263.212 133.753 263.212ZM138.336 262.463V261.333L142.398 255.062H144.125V261.283H145.382V262.463H144.125V264.253H142.805V262.463H138.336ZM139.808 261.283H142.805V256.725H142.703L139.808 261.207V261.283ZM148.099 263.377L147.083 266.881H146.004L146.677 263.377H148.099ZM150.003 264.253L154.103 256.332V256.255H149.368V255.062H155.551V256.306L151.463 264.253H150.003ZM159.956 264.38C157.823 264.38 156.579 262.667 156.579 259.658C156.579 256.674 157.849 254.935 159.956 254.935C162.063 254.935 163.333 256.674 163.333 259.658C163.333 262.667 162.076 264.38 159.956 264.38ZM159.956 263.174C161.2 263.174 161.936 261.956 161.936 259.658C161.936 257.373 161.187 256.116 159.956 256.116C158.724 256.116 157.975 257.373 157.975 259.658C157.975 261.956 158.712 263.174 159.956 263.174ZM167.979 264.38C165.847 264.38 164.602 262.667 164.602 259.658C164.602 256.674 165.872 254.935 167.979 254.935C170.087 254.935 171.356 256.674 171.356 259.658C171.356 262.667 170.099 264.38 167.979 264.38ZM167.979 263.174C169.224 263.174 169.96 261.956 169.96 259.658C169.96 257.373 169.211 256.116 167.979 256.116C166.748 256.116 165.999 257.373 165.999 259.658C165.999 261.956 166.735 263.174 167.979 263.174ZM185.042 253.97V262.59H183.836V261.499H181.551V260.648H183.836V253.97H185.042ZM185.321 264.114V265.091H177.107V261.752H178.301V264.114H185.321ZM175.533 259.163C177.641 259.15 180.472 259.125 182.896 258.82L182.973 259.683C182.001 259.842 180.979 259.95 179.976 260.013V262.235H178.77V260.077C177.666 260.127 176.606 260.134 175.685 260.127L175.533 259.163ZM179.253 254.402C180.916 254.402 182.071 255.202 182.071 256.408C182.071 257.614 180.916 258.388 179.253 258.388C177.564 258.388 176.422 257.614 176.422 256.408C176.422 255.202 177.564 254.402 179.253 254.402ZM179.253 255.303C178.237 255.291 177.552 255.722 177.564 256.408C177.552 257.081 178.237 257.5 179.253 257.5C180.23 257.5 180.916 257.081 180.929 256.408C180.916 255.722 180.23 255.291 179.253 255.303Z" fill="black"/>
<path d="M330.848 256.164V257.707H322V256.164H330.848Z" fill="#4A4A4A"/>
<path d="M351.126 262.252V258.463H347.357V256.881H351.126V253.111H352.708V256.881H356.498V258.463H352.708V262.252H351.126Z" fill="#4A4A4A"/>
<rect x="114.864" y="290.498" width="253.776" height="31.8743" rx="6.5" fill="white" stroke="#E7E7E7"/>
<path d="M330.848 301.954V303.497H322V301.954H330.848Z" fill="#4A4A4A"/>
<path d="M351.126 308.041V304.252H347.357V302.67H351.126V298.9H352.708V302.67H356.498V304.252H352.708V308.041H351.126Z" fill="#4A4A4A"/>
<rect x="117.212" y="333.939" width="57.7041" height="26.0039" rx="6.5" fill="white" stroke="#E7E7E7"/>
<path d="M138.436 340.77V349.961H137.281V341.963H137.23L134.996 343.449V342.293L137.281 340.77H138.436ZM143.895 350.088C141.851 350.088 140.683 348.374 140.683 345.366C140.683 342.382 141.877 340.643 143.895 340.643C145.914 340.643 147.107 342.382 147.107 345.366C147.107 348.374 145.927 350.088 143.895 350.088ZM143.895 349.073C145.216 349.073 145.99 347.74 145.99 345.366C145.99 342.992 145.216 341.633 143.895 341.633C142.575 341.633 141.788 342.992 141.788 345.366C141.788 347.74 142.562 349.073 143.895 349.073ZM150.573 345.036C149.38 345.036 148.732 344.147 148.732 342.827C148.732 341.532 149.405 340.63 150.573 340.63C151.779 340.63 152.414 341.532 152.414 342.827C152.414 344.147 151.754 345.036 150.573 345.036ZM150.573 344.248C151.195 344.248 151.487 343.69 151.487 342.827C151.487 341.976 151.221 341.405 150.573 341.417C149.964 341.417 149.659 341.976 149.659 342.827C149.659 343.69 149.964 344.248 150.573 344.248ZM156.184 350.088C154.991 350.101 154.331 349.2 154.344 347.892C154.331 346.584 155.016 345.683 156.184 345.683C157.378 345.683 158.013 346.584 158.013 347.892C158.013 349.2 157.352 350.101 156.184 350.088ZM156.184 349.301C156.794 349.301 157.086 348.743 157.086 347.892C157.086 347.029 156.819 346.457 156.184 346.47C155.575 346.483 155.258 347.029 155.258 347.892C155.258 348.743 155.562 349.301 156.184 349.301ZM149.634 349.961L155.956 340.77H156.984L150.662 349.961H149.634Z" fill="black"/>
<path d="M28.6558 504.81C28.6558 500.944 31.7898 497.81 35.6558 497.81H360.965C364.831 497.81 367.965 500.944 367.965 504.81V535.426C367.965 539.292 364.831 542.426 360.965 542.426H35.6558C31.7898 542.426 28.6558 539.292 28.6558 535.426V504.81Z" fill="#3182F6"/>
<path d="M175.251 510.596V524.815H173.345V517.643H172.064V524.158H170.173V510.799H172.064V516.018H173.345V510.596H175.251ZM168.985 512.065V521.237H163.329V512.065H168.985ZM165.189 513.643V519.674H167.126V513.643H165.189ZM188.345 516.955V518.533H184.22V521.565H189.767V523.19H176.751V521.565H182.235V518.533H178.282V511.596H188.235V513.19H180.282V516.955H188.345ZM201.798 510.596V516.158H203.892V517.799H201.798V524.815H199.829V510.596H201.798ZM198.86 512.721V514.315H190.501V512.721H193.72V510.815H195.72V512.721H198.86ZM194.72 515.112C196.798 515.112 198.345 516.518 198.345 518.502C198.345 520.487 196.798 521.893 194.72 521.893C192.626 521.893 191.079 520.487 191.079 518.502C191.079 516.518 192.626 515.112 194.72 515.112ZM194.72 516.721C193.72 516.737 192.985 517.408 192.985 518.502C192.985 519.612 193.72 520.268 194.72 520.252C195.72 520.268 196.439 519.612 196.439 518.502C196.439 517.408 195.72 516.737 194.72 516.721ZM216.36 510.596V524.815H214.345V510.596H216.36ZM212.095 512.08C212.095 516.393 210.579 519.971 205.501 522.377L204.454 520.783C208.126 519.049 209.743 516.799 210.064 513.643H205.22V512.08H212.095Z" fill="white"/>
<rect x="80.3154" y="76.3153" width="56.3559" height="34.0484" rx="15" fill="#F2F2FF"/>
<path d="M44.252 83.5975V98.3563H42.9903V90.537H40.9317V97.6093H39.6866V83.913H40.9317V89.4579H42.9903V83.5975H44.252ZM37.794 85.3241V94.3885H32.1495V85.3241H37.794ZM33.378 86.37V93.3427H36.5655V86.37H33.378ZM53.6983 84.9755C53.6983 87.0507 56.421 88.8602 59.0772 89.2255L58.546 90.288C56.2549 89.9061 53.9888 88.6361 53.0342 86.8182C52.088 88.6444 49.8135 89.9061 47.5225 90.288L46.9913 89.2255C49.6475 88.8602 52.3536 87.0839 52.3536 84.9755V84.1288H53.6983V84.9755ZM59.7413 91.9149V93.0106H53.6319V98.3563H52.3536V93.0106H46.294V91.9149H59.7413Z" fill="#D7D7D7"/>
<path d="M104.329 83.4813V98.4891H102.553V90.8026H100.959V97.7587H99.2161V83.7469H100.959V89.2753H102.553V83.4813H104.329ZM97.7386 85.1083V94.621H91.845V85.1083H97.7386ZM93.5716 86.5692V93.16H96.012V86.5692H93.5716ZM118.258 90.3046V91.7655H113.809V95.202H119.785V96.7128H106.073V95.202H111.983V91.7655H107.733V84.5936H118.142V86.0712H109.576V90.3046H118.258Z" fill="#3182F6"/>
</g>
<g filter="url(#filter1_d_61_1230)">
<rect x="140.795" y="138.542" width="389.795" height="569.429" rx="15" fill="white"/>
<rect x="141.295" y="139.042" width="388.795" height="568.429" rx="14.5" stroke="black" stroke-opacity="0.3"/>
<path d="M177.354 424.773C177.339 426.516 179.478 428.156 182.056 428.493L181.514 429.636C179.368 429.292 177.479 428.178 176.636 426.633C175.772 428.186 173.89 429.292 171.758 429.636L171.202 428.493C173.78 428.156 175.889 426.53 175.904 424.773V424.055H177.354V424.773ZM182.598 430.925V432.067H177.266V436.74H175.904V432.067H170.63V430.925H182.598ZM195.826 425.578V426.735H193.907V428.347H195.826V429.504H193.907V431.555H192.515V423.63H193.907V425.578H195.826ZM190.098 424.421V428.098H185.528V429.694C187.806 429.687 189.417 429.607 191.329 429.284L191.475 430.412C189.439 430.778 187.711 430.852 185.191 430.837H184.136V427.028H188.736V425.549H184.122V424.421H190.098ZM189.659 431.877C192.354 431.877 194.024 432.785 194.024 434.309C194.024 435.832 192.354 436.711 189.659 436.711C186.919 436.711 185.25 435.832 185.25 434.309C185.25 432.785 186.919 431.877 189.659 431.877ZM189.659 432.976C187.74 432.976 186.612 433.459 186.612 434.309C186.612 435.158 187.74 435.656 189.659 435.642C191.563 435.656 192.662 435.158 192.662 434.309C192.662 433.459 191.563 432.976 189.659 432.976Z" fill="black"/>
<rect x="323.278" y="460.74" width="57.7041" height="26.0039" rx="6.5" fill="white" stroke="#E7E7E7"/>
<path d="M182.598 572.403V573.531H170.63V572.403H175.919V570.894H177.295V572.403H182.598ZM177.295 565.664V566.924H181.397V568.037H177.383C177.53 569.305 179.346 570.257 181.954 570.469L181.529 571.538C179.258 571.326 177.42 570.564 176.607 569.341C175.787 570.564 173.948 571.326 171.7 571.538L171.26 570.469C173.853 570.257 175.669 569.305 175.831 568.037H171.832V566.924H175.919V565.664H177.295ZM176.607 574.395C179.463 574.395 181.133 575.171 181.133 576.592C181.133 578.013 179.463 578.789 176.607 578.775C173.736 578.789 172.051 578.013 172.051 576.592C172.051 575.171 173.736 574.395 176.607 574.395ZM176.607 575.435C174.586 575.435 173.458 575.845 173.458 576.592C173.458 577.339 174.586 577.735 176.607 577.72C178.599 577.735 179.742 577.339 179.742 576.592C179.742 575.845 178.599 575.435 176.607 575.435ZM197.745 566.338V567.334C197.745 568.367 197.745 569.539 197.408 571.128H199.268V572.271H187.256V571.128H196.002C196.353 569.598 196.368 568.477 196.368 567.481H188.765V566.338H197.745ZM197.759 573.941V578.643H188.721V573.941H197.759ZM190.084 575.039V577.515H196.382V575.039H190.084ZM203.34 566.485C205.084 566.485 206.358 567.788 206.358 569.634C206.358 571.48 205.084 572.74 203.34 572.74C201.583 572.74 200.323 571.48 200.337 569.634C200.323 567.788 201.583 566.485 203.34 566.485ZM203.34 567.686C202.315 567.686 201.583 568.462 201.583 569.634C201.583 570.777 202.315 571.582 203.34 571.568C204.351 571.582 205.084 570.777 205.098 569.634C205.084 568.462 204.351 567.686 203.34 567.686ZM211.412 565.694V573.516H210.093V570.132H208.57V573.428H207.266V565.928H208.57V569.004H210.093V565.694H211.412ZM211.412 574.19V578.804H210.035V575.303H202.491V574.19H211.412Z" fill="black"/>
<path d="M181.075 525.407V526.564C181.075 527.809 181.075 529.157 180.709 531.032H182.598V532.174H177.281V537.726H175.875V532.174H170.63V531.032H179.302C179.698 529.164 179.698 527.787 179.698 526.564V526.549H172.095V525.407H181.075ZM194.888 524.586V537.711H193.555V530.87H191.929V537.067H190.611V524.835H191.929V529.728H193.555V524.586H194.888ZM189.131 526.066V534.254H184.034V526.066H189.131ZM185.352 527.164V533.141H187.828V527.164H185.352ZM206.783 524.586V529.816H208.819V530.973H206.783V537.697H205.391V524.586H206.783ZM203.355 525.963C203.34 529.757 201.67 533.141 197.349 535.28L196.573 534.196C199.861 532.555 201.648 530.182 201.934 527.12H197.232V525.963H203.355ZM220.128 528.131V529.259H211.119V524.821H212.496V528.131H220.128ZM221.504 530.651V531.793H209.522V530.651H221.504ZM215.499 532.863C218.326 532.863 220.025 533.727 220.025 535.25C220.025 536.788 218.326 537.653 215.499 537.653C212.657 537.653 210.943 536.788 210.943 535.25C210.943 533.727 212.657 532.863 215.499 532.863ZM215.499 533.947C213.492 533.961 212.349 534.401 212.349 535.25C212.349 536.085 213.492 536.583 215.499 536.583C217.476 536.583 218.633 536.085 218.633 535.25C218.633 534.401 217.476 533.961 215.499 533.947Z" fill="black"/>
<path d="M483.559 536.613C481.098 536.613 479.663 534.635 479.663 531.163C479.663 527.721 481.128 525.714 483.559 525.714C485.991 525.714 487.456 527.721 487.456 531.163C487.456 534.635 486.006 536.613 483.559 536.613ZM483.559 535.221C484.995 535.221 485.844 533.815 485.844 531.163C485.844 528.527 484.98 527.077 483.559 527.077C482.138 527.077 481.274 528.527 481.274 531.163C481.274 533.815 482.124 535.221 483.559 535.221ZM499.585 524.601V534.547H498.193V533.287H495.556V532.306H498.193V524.601H499.585ZM499.907 536.305V537.433H490.429V533.58H491.806V536.305H499.907ZM488.613 530.592C491.045 530.578 494.311 530.548 497.109 530.197L497.197 531.193C496.076 531.376 494.897 531.5 493.74 531.574V534.137H492.348V531.647C491.074 531.705 489.851 531.713 488.789 531.705L488.613 530.592ZM492.905 525.099C494.824 525.099 496.157 526.022 496.157 527.413C496.157 528.805 494.824 529.699 492.905 529.699C490.957 529.699 489.638 528.805 489.638 527.413C489.638 526.022 490.957 525.099 492.905 525.099ZM492.905 526.139C491.733 526.124 490.942 526.622 490.957 527.413C490.942 528.19 491.733 528.673 492.905 528.673C494.033 528.673 494.824 528.19 494.839 527.413C494.824 526.622 494.033 526.124 492.905 526.139Z" fill="black"/>
<path d="M484.733 577.705C482.272 577.705 480.837 575.728 480.837 572.256C480.837 568.814 482.302 566.807 484.733 566.807C487.165 566.807 488.63 568.814 488.63 572.256C488.63 575.728 487.18 577.705 484.733 577.705ZM484.733 576.314C486.169 576.314 487.019 574.908 487.019 572.256C487.019 569.62 486.154 568.169 484.733 568.169C483.312 568.169 482.448 569.62 482.448 572.256C482.448 574.908 483.298 576.314 484.733 576.314ZM500.759 565.694V575.64H499.367V574.38H496.73V573.399H499.367V565.694H500.759ZM501.081 577.398V578.526H491.604V574.673H492.98V577.398H501.081ZM489.787 571.685C492.219 571.67 495.485 571.641 498.283 571.289L498.371 572.286C497.25 572.469 496.071 572.593 494.914 572.666V575.23H493.522V572.74C492.248 572.798 491.025 572.806 489.963 572.798L489.787 571.685ZM494.079 566.192C495.998 566.192 497.331 567.115 497.331 568.506C497.331 569.898 495.998 570.791 494.079 570.791C492.131 570.791 490.812 569.898 490.812 568.506C490.812 567.115 492.131 566.192 494.079 566.192ZM494.079 567.232C492.907 567.217 492.116 567.715 492.131 568.506C492.116 569.283 492.907 569.766 494.079 569.766C495.207 569.766 495.998 569.283 496.013 568.506C495.998 567.715 495.207 567.217 494.079 567.232Z" fill="black"/>
<path d="M340.078 476.762L340.065 475.924L343.201 472.623C344.293 471.468 344.813 470.846 344.813 469.995C344.813 469.056 344.014 468.434 342.985 468.434C341.893 468.434 341.195 469.132 341.195 470.161H340.116C340.103 468.536 341.36 467.444 343.023 467.444C344.686 467.444 345.88 468.561 345.88 469.995C345.88 471.024 345.397 471.824 343.772 473.499L341.665 475.67V475.746H346.045V476.762H340.078ZM350.704 476.889C349.041 476.889 347.784 475.861 347.721 474.452H348.825C348.914 475.277 349.714 475.886 350.704 475.886C351.897 475.886 352.761 475.01 352.761 473.855C352.761 472.661 351.859 471.786 350.628 471.773C349.853 471.76 349.257 472.001 348.914 472.598H347.809L348.457 467.571H353.433V468.586H349.409L349.066 471.278H349.155C349.561 470.96 350.183 470.745 350.831 470.745C352.583 470.745 353.878 472.039 353.878 473.829C353.878 475.607 352.532 476.889 350.704 476.889ZM357.407 471.836C356.214 471.836 355.566 470.948 355.566 469.627C355.566 468.332 356.239 467.431 357.407 467.431C358.613 467.431 359.248 468.332 359.248 469.627C359.248 470.948 358.588 471.836 357.407 471.836ZM357.407 471.049C358.029 471.049 358.321 470.491 358.321 469.627C358.321 468.777 358.055 468.205 357.407 468.218C356.798 468.218 356.493 468.777 356.493 469.627C356.493 470.491 356.798 471.049 357.407 471.049ZM363.018 476.889C361.825 476.902 361.165 476 361.178 474.693C361.165 473.385 361.85 472.484 363.018 472.484C364.212 472.484 364.847 473.385 364.847 474.693C364.847 476 364.186 476.902 363.018 476.889ZM363.018 476.102C363.628 476.102 363.92 475.543 363.92 474.693C363.92 473.829 363.653 473.258 363.018 473.271C362.409 473.284 362.092 473.829 362.092 474.693C362.092 475.543 362.396 476.102 363.018 476.102ZM356.468 476.762L362.79 467.571H363.818L357.496 476.762H356.468Z" fill="black"/>
<rect x="389.026" y="460.74" width="57.7041" height="26.0039" rx="6.5" fill="white" stroke="#E7E7E7"/>
<path d="M409.997 476.889C408.334 476.889 407.077 475.861 407.013 474.452H408.118C408.207 475.277 409.006 475.886 409.997 475.886C411.19 475.886 412.053 475.01 412.053 473.855C412.053 472.661 411.152 471.786 409.921 471.773C409.146 471.76 408.549 472.001 408.207 472.598H407.102L407.75 467.571H412.726V468.586H408.702L408.359 471.278H408.448C408.854 470.96 409.476 470.745 410.124 470.745C411.876 470.745 413.171 472.039 413.171 473.829C413.171 475.607 411.825 476.889 409.997 476.889ZM417.766 476.889C415.722 476.889 414.554 475.175 414.554 472.166C414.554 469.183 415.748 467.444 417.766 467.444C419.785 467.444 420.978 469.183 420.978 472.166C420.978 475.175 419.797 476.889 417.766 476.889ZM417.766 475.873C419.087 475.873 419.861 474.54 419.861 472.166C419.861 469.792 419.087 468.434 417.766 468.434C416.446 468.434 415.659 469.792 415.659 472.166C415.659 474.54 416.433 475.873 417.766 475.873ZM424.444 471.836C423.251 471.836 422.603 470.948 422.603 469.627C422.603 468.332 423.276 467.431 424.444 467.431C425.65 467.431 426.285 468.332 426.285 469.627C426.285 470.948 425.625 471.836 424.444 471.836ZM424.444 471.049C425.066 471.049 425.358 470.491 425.358 469.627C425.358 468.777 425.091 468.205 424.444 468.218C423.835 468.218 423.53 468.777 423.53 469.627C423.53 470.491 423.835 471.049 424.444 471.049ZM430.055 476.889C428.862 476.902 428.202 476 428.214 474.693C428.202 473.385 428.887 472.484 430.055 472.484C431.249 472.484 431.883 473.385 431.883 474.693C431.883 476 431.223 476.902 430.055 476.889ZM430.055 476.102C430.665 476.102 430.957 475.543 430.957 474.693C430.957 473.829 430.69 473.258 430.055 473.271C429.446 473.284 429.129 473.829 429.129 474.693C429.129 475.543 429.433 476.102 430.055 476.102ZM423.505 476.762L429.827 467.571H430.855L424.533 476.762H423.505Z" fill="black"/>
<rect x="455.949" y="460.74" width="57.7041" height="26.0039" rx="6.5" fill="white" stroke="#E7E7E7"/>
<path d="M475.447 472.458V474.528C476.533 474.483 477.643 474.388 478.684 474.236L478.761 474.972C476.183 475.442 473.403 475.454 471.372 475.454L471.232 474.629C472.178 474.623 473.295 474.617 474.47 474.578V472.458H475.447ZM478.1 467.99V468.815H475.447C475.473 470.275 476.685 471.462 478.354 471.938L477.885 472.725C476.526 472.319 475.466 471.449 474.965 470.3C474.47 471.513 473.416 472.414 472.057 472.827L471.575 472.065C473.245 471.576 474.419 470.338 474.444 468.815H471.854V467.99H474.47V466.593H475.447V467.99H478.1ZM480.424 466.504V477.816H479.433V466.504H480.424ZM492.053 466.504V477.79H491.1V471.874H489.437V477.206H488.523V466.758H489.437V471.049H491.1V466.504H492.053ZM487.051 467.888V468.713H483.813V474.147C485.369 474.141 486.448 474.083 487.698 473.829L487.787 474.667C486.429 474.947 485.273 474.997 483.547 474.997H482.823V467.888H487.051Z" fill="black"/>
<path d="M182.598 295.993V297.121H177.266V301.706H175.904V297.121H170.63V295.993H182.598ZM181.47 289.372V290.486H177.413C177.435 292.112 179.456 293.562 181.939 293.899L181.426 294.997C179.273 294.66 177.413 293.598 176.622 292.097C175.809 293.598 173.956 294.66 171.832 294.997L171.304 293.899C173.758 293.562 175.779 292.112 175.831 290.486H171.744V289.372H181.47ZM195.591 295.232V296.36H190.377V298.908H189V296.36H183.58V295.232H195.591ZM194.039 289.211V293.869H185.118V289.211H194.039ZM186.48 290.31V292.771H192.662V290.31H186.48ZM194.258 300.315V301.443H185.074V297.663H186.465V300.315H194.258ZM212.217 296.008V297.151H209.17V301.721H207.764V297.151H204.629V301.721H203.194V297.151H200.206V296.008H212.217ZM206.182 289.094C208.951 289.094 210.855 290.222 210.855 291.994C210.855 293.738 208.951 294.851 206.182 294.836C203.399 294.851 201.509 293.738 201.509 291.994C201.509 290.222 203.399 289.094 206.182 289.094ZM206.182 290.207C204.234 290.222 202.93 290.896 202.945 291.994C202.93 293.064 204.234 293.738 206.182 293.738C208.13 293.738 209.434 293.064 209.434 291.994C209.434 290.896 208.13 290.222 206.182 290.207ZM220.582 289.973V291.086H213.199V289.973H216.275V288.479H217.652V289.973H220.582ZM216.949 291.687C218.721 291.687 219.966 292.668 219.981 294.133C219.966 295.598 218.721 296.565 216.949 296.565C215.162 296.565 213.931 295.598 213.931 294.133C213.931 292.668 215.162 291.687 216.949 291.687ZM216.949 292.741C215.909 292.741 215.235 293.283 215.235 294.133C215.235 294.983 215.909 295.51 216.949 295.51C217.974 295.51 218.677 294.983 218.692 294.133C218.677 293.283 217.974 292.741 216.949 292.741ZM224.127 288.596V297.048H222.735V295.364H220.611V294.236H222.735V292.785H220.626V291.657H222.735V288.596H224.127ZM219.761 297.18C222.515 297.18 224.2 298 224.2 299.436C224.2 300.857 222.515 301.706 219.761 301.692C216.993 301.706 215.308 300.857 215.308 299.436C215.308 298 216.993 297.18 219.761 297.18ZM219.761 298.249C217.872 298.249 216.758 298.659 216.758 299.436C216.758 300.198 217.872 300.637 219.761 300.622C221.607 300.637 222.72 300.198 222.72 299.436C222.72 298.659 221.607 298.249 219.761 298.249Z" fill="black"/>
<path d="M181.075 335.205V336.363C181.075 337.608 181.075 338.955 180.709 340.83H182.598V341.973H177.281V347.525H175.875V341.973H170.63V340.83H179.302C179.698 338.963 179.698 337.586 179.698 336.363V336.348H172.095V335.205H181.075ZM194.888 334.385V347.51H193.555V340.669H191.929V346.866H190.611V334.634H191.929V339.527H193.555V334.385H194.888ZM189.131 335.865V344.053H184.034V335.865H189.131ZM185.352 336.963V342.94H187.828V336.963H185.352ZM210.445 334.385V339.615H212.481V340.772H210.445V347.495H209.053V334.385H210.445ZM207.017 335.762C207.003 339.556 205.333 342.94 201.011 345.078L200.235 343.995C203.523 342.354 205.311 339.981 205.596 336.919H200.894V335.762H207.017ZM220.142 335.249C220.142 335.747 220.091 336.216 219.996 336.67H222.735V334.4H224.127V342.207H222.735V340.567H219.424V339.439H222.735V337.784H219.644C218.758 339.842 216.744 341.314 213.902 342.076L213.375 340.977C216.495 340.135 218.392 338.465 218.648 336.377H214.063V335.249H220.142ZM224.127 342.779V347.481H222.735V343.877H215.235V342.779H224.127Z" fill="black"/>
<line x1="159.58" y1="505.529" x2="523.546" y2="505.529" stroke="#E7E7E7"/>
<rect x="257.529" y="284.628" width="253.776" height="31.8743" rx="6.5" fill="white" stroke="#E7E7E7"/>
<rect x="257.529" y="371.51" width="253.776" height="31.8743" rx="6.5" fill="white" stroke="#E7E7E7"/>
<rect x="257.529" y="328.069" width="253.776" height="31.8743" rx="6.5" fill="#F0F0F0" stroke="#F0F0F0"/>
<rect x="261.725" y="331.091" width="119.756" height="25.8298" rx="5" fill="white"/>
<path d="M303.904 340.669C303.904 342.573 305.148 344.541 306.9 345.29L306.24 346.229C304.901 345.639 303.835 344.389 303.308 342.865C302.781 344.49 301.708 345.874 300.388 346.521L299.69 345.569C301.403 344.769 302.673 342.624 302.686 340.669V339.463H300.083V338.46H306.494V339.463H303.904V340.669ZM309.135 337.317V348.692H307.929V337.317H309.135ZM320.434 337.317V344.084H319.228V341.202H317.107V340.212H319.228V337.317H320.434ZM316.625 344.401C319.012 344.401 320.472 345.188 320.472 346.547C320.472 347.905 319.012 348.68 316.625 348.692C314.238 348.68 312.766 347.905 312.778 346.547C312.766 345.188 314.238 344.401 316.625 344.401ZM316.625 345.341C314.962 345.341 313.972 345.772 313.972 346.547C313.972 347.308 314.962 347.753 316.625 347.74C318.288 347.753 319.278 347.308 319.278 346.547C319.278 345.772 318.288 345.341 316.625 345.341ZM315.025 339.323C315.025 340.77 316.054 342.167 317.768 342.751L317.146 343.703C315.87 343.259 314.93 342.351 314.441 341.227C313.94 342.503 312.943 343.525 311.585 344.02L310.95 343.056C312.715 342.446 313.794 340.91 313.794 339.336V339.082H311.331V338.104H317.463V339.082H315.025V339.323ZM331.047 337.317V341.849H332.812V342.852H331.047V348.68H329.841V337.317H331.047ZM328.076 338.511C328.064 341.799 326.616 344.731 322.871 346.585L322.198 345.645C325.048 344.224 326.597 342.167 326.845 339.514H322.77V338.511H328.076Z" fill="black"/>
<path d="M429.518 340.212C429.506 342.294 430.762 344.376 432.527 345.163L431.803 346.115C430.496 345.493 429.461 344.217 428.934 342.662C428.401 344.325 427.354 345.703 425.989 346.369L425.253 345.353C427.043 344.554 428.3 342.383 428.3 340.212V338.269H429.518V340.212ZM434.761 337.317V348.718H433.555V337.317H434.761ZM440.551 339.412C440.551 340.859 441.553 342.18 443.28 342.725L442.709 343.665C441.414 343.252 440.468 342.395 439.967 341.316C439.471 342.56 438.475 343.544 437.11 344.02L436.488 343.056C438.265 342.472 439.332 340.999 439.344 339.425V339.107H436.844V338.13H443.001V339.107H440.551V339.412ZM445.514 337.317V340.136H447.165V341.126H445.514V344.147H444.308V337.317H445.514ZM441.845 344.427C444.194 344.427 445.616 345.201 445.616 346.534C445.616 347.88 444.194 348.68 441.845 348.667C439.471 348.68 438.024 347.88 438.024 346.534C438.024 345.201 439.471 344.427 441.845 344.427ZM441.845 345.379C440.195 345.379 439.218 345.798 439.23 346.534C439.218 347.296 440.195 347.715 441.845 347.715C443.483 347.715 444.435 347.296 444.435 346.534C444.435 345.798 443.483 345.379 441.845 345.379ZM456.674 337.317V341.849H458.438V342.852H456.674V348.68H455.468V337.317H456.674ZM453.703 338.511C453.69 341.799 452.243 344.731 448.498 346.585L447.825 345.645C450.675 344.224 452.224 342.167 452.471 339.514H448.396V338.511H453.703Z" fill="black"/>
<path d="M276.431 391.181C274.73 391.168 272.952 390.165 272.952 386.763C272.952 383.564 274.336 381.736 276.545 381.736C278.234 381.736 279.414 382.789 279.63 384.249H278.246C278.068 383.5 277.472 382.955 276.545 382.955C275.123 382.955 274.298 384.199 274.298 386.268H274.4C274.895 385.494 275.758 385.024 276.761 385.024C278.399 385.024 279.719 386.281 279.719 388.045C279.719 389.823 278.411 391.194 276.431 391.181ZM276.418 390.013C277.535 390.013 278.36 389.15 278.36 388.071C278.36 387.017 277.561 386.166 276.456 386.166C275.326 386.166 274.476 387.055 274.463 388.083C274.476 389.099 275.288 390.013 276.418 390.013ZM281.001 389.264V388.134L285.064 381.863H286.79V388.083H288.047V389.264H286.79V391.054H285.47V389.264H281.001ZM282.474 388.083H285.47V383.526H285.368L282.474 388.007V388.083ZM290.764 390.178L289.748 393.682H288.669L289.342 390.178H290.764ZM292.668 391.054L296.769 383.132V383.056H292.033V381.863H298.216V383.107L294.128 391.054H292.668ZM302.621 391.181C300.488 391.181 299.244 389.467 299.244 386.458C299.244 383.475 300.514 381.736 302.621 381.736C304.729 381.736 305.998 383.475 305.998 386.458C305.998 389.467 304.741 391.181 302.621 391.181ZM302.621 389.975C303.865 389.975 304.602 388.756 304.602 386.458C304.602 384.173 303.853 382.916 302.621 382.916C301.39 382.916 300.641 384.173 300.641 386.458C300.641 388.756 301.377 389.975 302.621 389.975ZM310.645 391.181C308.512 391.181 307.268 389.467 307.268 386.458C307.268 383.475 308.537 381.736 310.645 381.736C312.752 381.736 314.022 383.475 314.022 386.458C314.022 389.467 312.765 391.181 310.645 391.181ZM310.645 389.975C311.889 389.975 312.625 388.756 312.625 386.458C312.625 384.173 311.876 382.916 310.645 382.916C309.413 382.916 308.664 384.173 308.664 386.458C308.664 388.756 309.401 389.975 310.645 389.975ZM327.707 380.771V389.391H326.501V388.299H324.216V387.449H326.501V380.771H327.707ZM327.986 390.914V391.892H319.773V388.553H320.966V390.914H327.986ZM318.198 385.963C320.306 385.951 323.137 385.925 325.562 385.621L325.638 386.484C324.667 386.643 323.645 386.75 322.642 386.814V389.036H321.436V386.877C320.331 386.928 319.271 386.935 318.351 386.928L318.198 385.963ZM321.918 381.203C323.581 381.203 324.736 382.002 324.736 383.208C324.736 384.414 323.581 385.189 321.918 385.189C320.23 385.189 319.087 384.414 319.087 383.208C319.087 382.002 320.23 381.203 321.918 381.203ZM321.918 382.104C320.902 382.091 320.217 382.523 320.23 383.208C320.217 383.881 320.902 384.3 321.918 384.3C322.896 384.3 323.581 383.881 323.594 383.208C323.581 382.523 322.896 382.091 321.918 382.104Z" fill="black"/>
<path d="M473.513 382.965V384.508H464.666V382.965H473.513Z" fill="#4A4A4A"/>
<path d="M493.792 389.053V385.264H490.022V383.682H493.792V379.912H495.374V383.682H499.163V385.264H495.374V389.053H493.792Z" fill="#4A4A4A"/>
<rect x="257.529" y="417.299" width="253.776" height="31.8743" rx="6.5" fill="white" stroke="#E7E7E7"/>
<path d="M473.513 428.754V430.297H464.666V428.754H473.513Z" fill="#4A4A4A"/>
<path d="M493.792 434.842V431.053H490.022V429.471H493.792V425.701H495.374V429.471H499.163V431.053H495.374V434.842H493.792Z" fill="#4A4A4A"/>
<rect x="259.877" y="460.74" width="57.7041" height="26.0039" rx="6.5" fill="white" stroke="#E7E7E7"/>
<path d="M281.102 467.571V476.762H279.946V468.764H279.896L277.661 470.249V469.094L279.946 467.571H281.102ZM286.561 476.889C284.517 476.889 283.349 475.175 283.349 472.166C283.349 469.183 284.542 467.444 286.561 467.444C288.579 467.444 289.773 469.183 289.773 472.166C289.773 475.175 288.592 476.889 286.561 476.889ZM286.561 475.873C287.881 475.873 288.655 474.54 288.655 472.166C288.655 469.792 287.881 468.434 286.561 468.434C285.24 468.434 284.453 469.792 284.453 472.166C284.453 474.54 285.228 475.873 286.561 475.873ZM293.238 471.836C292.045 471.836 291.398 470.948 291.398 469.627C291.398 468.332 292.07 467.431 293.238 467.431C294.444 467.431 295.079 468.332 295.079 469.627C295.079 470.948 294.419 471.836 293.238 471.836ZM293.238 471.049C293.86 471.049 294.152 470.491 294.152 469.627C294.152 468.777 293.886 468.205 293.238 468.218C292.629 468.218 292.324 468.777 292.324 469.627C292.324 470.491 292.629 471.049 293.238 471.049ZM298.85 476.889C297.656 476.902 296.996 476 297.009 474.693C296.996 473.385 297.682 472.484 298.85 472.484C300.043 472.484 300.678 473.385 300.678 474.693C300.678 476 300.018 476.902 298.85 476.889ZM298.85 476.102C299.459 476.102 299.751 475.543 299.751 474.693C299.751 473.829 299.484 473.258 298.85 473.271C298.24 473.284 297.923 473.829 297.923 474.693C297.923 475.543 298.228 476.102 298.85 476.102ZM292.299 476.762L298.621 467.571H299.65L293.327 476.762H292.299Z" fill="black"/>
<path d="M171.321 631.611C171.321 627.745 174.455 624.611 178.321 624.611H503.631C507.497 624.611 510.631 627.745 510.631 631.611V662.226C510.631 666.092 507.497 669.226 503.631 669.226H178.321C174.455 669.226 171.321 666.092 171.321 662.226V631.611Z" fill="#F25050"/>
<path d="M317.916 637.397V651.615H316.01V644.444H314.729V650.959H312.838V637.6H314.729V642.819H316.01V637.397H317.916ZM311.651 638.865V648.037H305.995V638.865H311.651ZM307.854 640.444V646.475H309.791V640.444H307.854ZM326.963 638.506C326.963 640.178 328.666 642.037 331.932 642.444L331.151 644.053C328.666 643.694 326.846 642.545 325.916 641.006C324.979 642.545 323.174 643.694 320.713 644.053L319.916 642.444C323.151 642.037 324.87 640.178 324.87 638.506V637.819H326.963V638.506ZM332.385 645.131V646.756H326.854V651.615H324.885V646.756H319.416V645.131H332.385ZM344.463 637.397V642.959H346.557V644.6H344.463V651.615H342.495V637.397H344.463ZM341.526 639.522V641.115H333.166V639.522H336.385V637.615H338.385V639.522H341.526ZM337.385 641.912C339.463 641.912 341.01 643.319 341.01 645.303C341.01 647.287 339.463 648.694 337.385 648.694C335.291 648.694 333.745 647.287 333.745 645.303C333.745 643.319 335.291 641.912 337.385 641.912ZM337.385 643.522C336.385 643.537 335.651 644.209 335.651 645.303C335.651 646.412 336.385 647.069 337.385 647.053C338.385 647.069 339.104 646.412 339.104 645.303C339.104 644.209 338.385 643.537 337.385 643.522ZM359.026 637.397V651.615H357.01V637.397H359.026ZM354.76 638.881C354.76 643.194 353.245 646.772 348.166 649.178L347.12 647.584C350.791 645.85 352.409 643.6 352.729 640.444H347.885V638.881H354.76Z" fill="white"/>
<rect x="161.928" y="203.116" width="56.3559" height="34.0484" rx="15" fill="#FFF2F2"/>
<path d="M246.795 210.398V225.157H245.534V217.338H243.475V224.41H242.23V210.714H243.475V216.259H245.534V210.398H246.795ZM240.337 212.125V221.189H234.693V212.125H240.337ZM235.921 213.171V220.143H239.109V213.171H235.921ZM260.757 217.321V218.384H256.192V222.202H262.351V223.298H248.837V222.202H254.914V218.384H250.564V211.61H260.608V212.673H251.876V217.321H260.757Z" fill="#D7D7D7"/>
<path d="M187.117 210.282V225.29H185.34V217.603H183.746V224.559H182.003V210.548H183.746V216.076H185.34V210.282H187.117ZM180.526 211.909V221.422H174.632V211.909H180.526ZM176.359 213.37V219.961H178.799V213.37H176.359ZM196.679 211.527C196.679 213.42 198.787 215.329 201.992 215.744L201.261 217.238C198.713 216.856 196.687 215.603 195.716 213.901C194.728 215.603 192.711 216.856 190.188 217.238L189.457 215.744C192.628 215.329 194.737 213.42 194.737 211.527V210.764H196.679V211.527ZM202.539 218.533V220.06H196.579V225.29H194.753V220.06H188.86V218.533H202.539Z" fill="#F25050"/>
</g>
<path d="M178.504 169.255V170.948H172.627V176.028H170.535V170.948H164.725V169.255H178.504ZM177.276 161.718V163.378H172.876C173.084 164.855 174.752 166.341 177.857 166.715L177.093 168.375C174.437 168.018 172.536 166.881 171.631 165.32C170.701 166.881 168.817 168.018 166.186 168.375L165.405 166.715C168.46 166.341 170.145 164.855 170.386 163.378H165.97V161.718H177.276ZM193.23 168.392V170.068H187.535V172.675H185.444V170.068H179.401V168.392H193.23ZM191.453 161.585V167.146H181.127V161.585H191.453ZM183.202 163.229V165.503H189.378V163.229H183.202ZM191.702 174.069V175.763H181.028V171.363H183.136V174.069H191.702ZM206.029 160.921V166.831H208.254V168.574H206.029V176.028H203.938V160.921H206.029ZM202.908 163.179V164.872H194.027V163.179H197.446V161.153H199.571V163.179H202.908ZM198.509 165.719C200.717 165.719 202.361 167.213 202.361 169.321C202.361 171.43 200.717 172.924 198.509 172.924C196.284 172.924 194.641 171.43 194.641 169.321C194.641 167.213 196.284 165.719 198.509 165.719ZM198.509 167.429C197.446 167.445 196.666 168.159 196.666 169.321C196.666 170.5 197.446 171.197 198.509 171.181C199.571 171.197 200.335 170.5 200.335 169.321C200.335 168.159 199.571 167.445 198.509 167.429ZM221.502 160.921V176.028H219.361V160.921H221.502ZM216.97 162.498C216.97 167.08 215.36 170.882 209.964 173.438L208.852 171.745C212.753 169.902 214.471 167.512 214.812 164.158H209.665V162.498H216.97Z" fill="black"/>
<defs>
<filter id="filter0_d_61_1230" x="0" y="0" width="397.795" height="590.344" filterUnits="userSpaceOnUse" color-interpolation-filters="sRGB">
<feFlood flood-opacity="0" result="BackgroundImageFix"/>
<feColorMatrix in="SourceAlpha" type="matrix" values="0 0 0 0 0 0 0 0 0 0 0 0 0 0 0 0 0 0 127 0" result="hardAlpha"/>
<feOffset dy="4"/>
<feGaussianBlur stdDeviation="2"/>
<feComposite in2="hardAlpha" operator="out"/>
<feColorMatrix type="matrix" values="0 0 0 0 0 0 0 0 0 0 0 0 0 0 0 0 0 0 0.25 0"/>
<feBlend mode="normal" in2="BackgroundImageFix" result="effect1_dropShadow_61_1230"/>
<feBlend mode="normal" in="SourceGraphic" in2="effect1_dropShadow_61_1230" result="shape"/>
</filter>
<filter id="filter1_d_61_1230" x="136.795" y="138.542" width="397.795" height="577.429" filterUnits="userSpaceOnUse" color-interpolation-filters="sRGB">
<feFlood flood-opacity="0" result="BackgroundImageFix"/>
<feColorMatrix in="SourceAlpha" type="matrix" values="0 0 0 0 0 0 0 0 0 0 0 0 0 0 0 0 0 0 127 0" result="hardAlpha"/>
<feOffset dy="4"/>
<feGaussianBlur stdDeviation="2"/>
<feComposite in2="hardAlpha" operator="out"/>
<feColorMatrix type="matrix" values="0 0 0 0 0 0 0 0 0 0 0 0 0 0 0 0 0 0 0.25 0"/>
<feBlend mode="normal" in2="BackgroundImageFix" result="effect1_dropShadow_61_1230"/>
<feBlend mode="normal" in="SourceGraphic" in2="effect1_dropShadow_61_1230" result="shape"/>
</filter>
</defs>
</svg>
