<svg width="40" height="40" viewBox="0 0 40 40" fill="none" xmlns="http://www.w3.org/2000/svg">
<rect width="40" height="40" rx="10" fill="#EAECF0"/>
<path d="M22.2349 27C23.0999 27 23.5569 28.024 22.9799 28.668C22.6048 29.0871 22.1455 29.4223 21.632 29.6518C21.1185 29.8813 20.5624 30 19.9999 30C19.4375 30 18.8814 29.8813 18.3679 29.6518C17.8544 29.4223 17.3951 29.0871 17.0199 28.668C16.4679 28.052 16.8619 27.089 17.6539 27.007L17.7639 27.001L22.2349 27ZM19.9999 10C21.3579 10 22.5059 10.903 22.8749 12.141L22.9209 12.312L22.9289 12.355C24.0315 12.9767 24.971 13.8509 25.6705 14.9058C26.3699 15.9607 26.8094 17.1664 26.9529 18.424L26.9809 18.711L26.9999 19V21.931L27.0209 22.067C27.1579 22.8038 27.5656 23.4627 28.1639 23.914L28.3309 24.031L28.4929 24.13C29.3529 24.617 29.0529 25.896 28.1159 25.994L27.9999 26H11.9999C10.9719 26 10.6129 24.636 11.5069 24.13C11.888 23.9144 12.2172 23.618 12.4715 23.2616C12.7258 22.9052 12.899 22.4974 12.9789 22.067L12.9999 21.924L13.0009 18.954C13.0619 17.6479 13.4421 16.3766 14.1082 15.2515C14.7744 14.1263 15.7061 13.1816 16.8219 12.5L17.0699 12.354L17.0799 12.311C17.221 11.7128 17.5424 11.1724 18.0006 10.7628C18.4588 10.3533 19.0318 10.0943 19.6419 10.021L19.8239 10.004L19.9999 10Z" fill="#B4BDC6"/>
</svg>
