<svg width="40" height="40" viewBox="0 0 40 40" fill="none" xmlns="http://www.w3.org/2000/svg">
<rect width="40" height="40" rx="10" fill="#DDE1E5"/>
<path d="M31 17.1369C31 24.0656 20.8063 29.6739 20.3722 29.9055C20.2578 29.9675 20.1299 30 20 30C19.8701 30 19.7422 29.9675 19.6278 29.9055C19.1937 29.6739 9 24.0656 9 17.1369C9.00182 15.5098 9.64395 13.95 10.7855 12.7995C11.9271 11.649 13.4749 11.0018 15.0893 11C17.1174 11 18.8931 11.879 20 13.3647C21.1069 11.879 22.8826 11 24.9107 11C26.5251 11.0018 28.0729 11.649 29.2145 12.7995C30.356 13.95 30.9982 15.5098 31 17.1369Z" fill="#B4BDC6"/>
</svg>
