<svg width="30" height="30" viewBox="0 0 30 30" fill="none" xmlns="http://www.w3.org/2000/svg">
<path fill-rule="evenodd" clip-rule="evenodd" d="M15.0243 3.75C12.2012 3.75 9.62933 4.6825 8.10746 5.44438C7.96996 5.51313 7.84163 5.58021 7.72246 5.64562C7.48621 5.77437 7.28496 5.89438 7.12496 6L8.85621 8.54875L9.67121 8.87312C12.8562 10.48 17.1275 10.48 20.3131 8.87312L21.2381 8.39312L22.875 6C22.5355 5.77944 22.183 5.5797 21.8193 5.40187C20.305 4.64812 17.7943 3.75 15.025 3.75M10.9987 6.635C10.3858 6.51965 9.78034 6.36772 9.18558 6.18C10.6112 5.54687 12.7356 4.875 15.025 4.875C16.6106 4.875 18.11 5.1975 19.35 5.60625C17.8968 5.81063 16.3462 6.1575 14.8687 6.58437C13.7062 6.92062 12.3475 6.88438 10.9987 6.635ZM20.9737 9.8L20.82 9.8775C17.3162 11.645 12.6687 11.645 9.16496 9.8775L9.01933 9.80375C3.75496 15.5794 -0.263792 26.2481 15.0243 26.2481C30.3125 26.2481 26.1962 15.3813 20.9737 9.8ZM14.375 15C14.0434 15 13.7255 15.1317 13.4911 15.3661C13.2567 15.6005 13.125 15.9185 13.125 16.25C13.125 16.5815 13.2567 16.8995 13.4911 17.1339C13.7255 17.3683 14.0434 17.5 14.375 17.5V15ZM15.625 13.75V13.125H14.375V13.75C13.7119 13.75 13.076 14.0134 12.6072 14.4822C12.1384 14.9511 11.875 15.587 11.875 16.25C11.875 16.913 12.1384 17.5489 12.6072 18.0178C13.076 18.4866 13.7119 18.75 14.375 18.75V21.25C13.8312 21.25 13.3681 20.9031 13.1956 20.4169C13.17 20.3373 13.1287 20.2637 13.0742 20.2004C13.0196 20.1371 12.9529 20.0853 12.8781 20.0482C12.8032 20.0111 12.7216 19.9894 12.6382 19.9844C12.5548 19.9794 12.4712 19.9911 12.3924 20.019C12.3136 20.0468 12.2412 20.0902 12.1795 20.1465C12.1177 20.2028 12.0679 20.2709 12.0329 20.3468C11.998 20.4227 11.9786 20.5049 11.9759 20.5884C11.9733 20.6719 11.9874 20.7552 12.0175 20.8331C12.1898 21.3207 12.509 21.7428 12.9313 22.0413C13.3535 22.3398 13.8579 22.5001 14.375 22.5V23.125H15.625V22.5C16.288 22.5 16.9239 22.2366 17.3927 21.7678C17.8616 21.2989 18.125 20.663 18.125 20C18.125 19.337 17.8616 18.7011 17.3927 18.2322C16.9239 17.7634 16.288 17.5 15.625 17.5V15C16.1687 15 16.6318 15.3469 16.8043 15.8331C16.8299 15.9127 16.8712 15.9863 16.9258 16.0496C16.9803 16.1129 17.047 16.1647 17.1219 16.2018C17.1967 16.2389 17.2783 16.2606 17.3617 16.2656C17.4451 16.2706 17.5287 16.2589 17.6075 16.231C17.6863 16.2032 17.7587 16.1598 17.8205 16.1035C17.8822 16.0472 17.932 15.9791 17.967 15.9032C18.0019 15.8273 18.0213 15.7451 18.024 15.6616C18.0266 15.5781 18.0125 15.4948 17.9825 15.4169C17.8101 14.9293 17.4909 14.5072 17.0687 14.2087C16.6464 13.9102 16.1421 13.7499 15.625 13.75ZM15.625 18.75V21.25C15.9565 21.25 16.2744 21.1183 16.5088 20.8839C16.7433 20.6495 16.875 20.3315 16.875 20C16.875 19.6685 16.7433 19.3505 16.5088 19.1161C16.2744 18.8817 15.9565 18.75 15.625 18.75Z" fill="#A2A5AC"/>
</svg>
