<svg width="46" height="46" viewBox="0 0 46 46" fill="none" xmlns="http://www.w3.org/2000/svg">
<path fill-rule="evenodd" clip-rule="evenodd" d="M23 4.6C19.7818 4.59941 16.6196 5.44292 13.8293 7.04634C11.0389 8.64977 8.71786 10.957 7.09785 13.7378C5.47785 16.5186 4.61552 19.6756 4.59695 22.8938C4.57838 26.112 5.40421 29.2788 6.99202 32.0781C8.06522 30.6833 9.4448 29.554 11.0241 28.7775C12.6034 28.0011 14.3401 27.5982 16.1 27.6H29.9C31.6599 27.5982 33.3966 28.0011 34.9759 28.7775C36.5552 29.554 37.9348 30.6833 39.008 32.0781C40.5958 29.2788 41.4216 26.112 41.403 22.8938C41.3845 19.6756 40.5222 16.5186 38.9021 13.7378C37.2821 10.957 34.9611 8.64977 32.1707 7.04634C29.3804 5.44292 26.2183 4.59941 23 4.6ZM41.2689 36.9748C41.5572 36.5991 41.8331 36.2143 42.0969 35.8202C44.6467 32.0314 46.0059 27.5669 46 23C46 10.2971 35.7029 0 23 0C10.2971 0 2.35875e-05 10.2971 2.35875e-05 23C-0.00722445 28.0525 1.65611 32.9657 4.73112 36.9748L4.71962 37.0162L5.53612 37.9661C7.69325 40.4881 10.3716 42.5123 13.3865 43.8993C16.4015 45.2862 19.6813 46.0029 23 46C23.4968 46 23.9905 45.9847 24.4812 45.954C28.6313 45.6923 32.6317 44.3048 36.0525 41.9405C37.6885 40.8119 39.1713 39.4759 40.4639 37.9661L41.2804 37.0162L41.2689 36.9748ZM23 9.2C21.17 9.2 19.415 9.92696 18.121 11.221C16.827 12.515 16.1 14.27 16.1 16.1C16.1 17.93 16.827 19.685 18.121 20.979C19.415 22.273 21.17 23 23 23C24.83 23 26.585 22.273 27.879 20.979C29.173 19.685 29.9 17.93 29.9 16.1C29.9 14.27 29.173 12.515 27.879 11.221C26.585 9.92696 24.83 9.2 23 9.2Z" fill="#8FB9F7"/>
</svg>
