<svg width="30" height="30" viewBox="0 0 30 30" fill="none" xmlns="http://www.w3.org/2000/svg">
<path fill-rule="evenodd" clip-rule="evenodd" d="M21.4221 0.471424C21.647 0.245799 21.934 0.09213 22.2465 0.0299384C22.5589 -0.0322532 22.8829 -0.000160884 23.1771 0.122139L27.7349 2.01214C28.128 2.17444 28.4407 2.4859 28.6046 2.87831C28.7684 3.27072 28.7701 3.71208 28.6092 4.10571L26.7471 8.66357C26.6268 8.95788 26.4219 9.2099 26.1583 9.38774C25.8947 9.56557 25.5843 9.66123 25.2664 9.6626C24.9484 9.66398 24.6372 9.57101 24.3721 9.39547C24.107 9.21992 23.8999 8.96969 23.7771 8.67642L23.0421 6.91928L4.53207 14.8286C4.3379 14.9116 4.12929 14.9555 3.91813 14.9579C3.70697 14.9603 3.49741 14.9211 3.30141 14.8425C3.10542 14.7639 2.92682 14.6475 2.77582 14.4998C2.62482 14.3522 2.50437 14.1763 2.42136 13.9821C2.33834 13.788 2.29439 13.5794 2.292 13.3682C2.28961 13.157 2.32883 12.9475 2.40743 12.7515C2.48603 12.5555 2.60246 12.3769 2.75008 12.2259C2.8977 12.0749 3.07362 11.9544 3.26779 11.8714L21.8014 3.95357L21.0792 2.22857C20.9556 1.9347 20.9223 1.61072 20.9833 1.29784C21.0444 0.984947 21.1971 0.697283 21.4221 0.471424ZM27.3214 11.7429C27.8897 11.7429 28.4347 11.9686 28.8366 12.3705C29.2384 12.7723 29.4642 13.3174 29.4642 13.8857V28.8857C29.4642 29.1699 29.3513 29.4424 29.1504 29.6433C28.9495 29.8443 28.6769 29.9571 28.3928 29.9571H23.0356C22.7515 29.9571 22.479 29.8443 22.278 29.6433C22.0771 29.4424 21.9642 29.1699 21.9642 28.8857V13.8857C21.9642 13.3174 22.19 12.7723 22.5918 12.3705C22.9937 11.9686 23.5388 11.7429 24.1071 11.7429H27.3214ZM18.1221 15.5829C17.72 15.1817 17.175 14.9567 16.6071 14.9571H13.3928C12.8245 14.9571 12.2794 15.1829 11.8776 15.5848C11.4757 15.9866 11.2499 16.5317 11.2499 17.1V28.8857C11.2499 29.1699 11.3628 29.4424 11.5637 29.6433C11.7647 29.8443 12.0372 29.9571 12.3214 29.9571H17.6785C17.9627 29.9571 18.2352 29.8443 18.4361 29.6433C18.637 29.4424 18.7499 29.1699 18.7499 28.8857V17.1C18.7502 16.8183 18.6948 16.5392 18.5871 16.2789C18.4793 16.0186 18.3213 15.782 18.1221 15.5829ZM5.89279 18.1714C6.46111 18.1714 7.00615 18.3972 7.40802 18.7991C7.80988 19.2009 8.03564 19.746 8.03564 20.3143V28.8857C8.03564 29.1699 7.92276 29.4424 7.72183 29.6433C7.5209 29.8443 7.24838 29.9571 6.96422 29.9571H1.60707C1.32291 29.9571 1.05039 29.8443 0.849459 29.6433C0.648527 29.4424 0.535645 29.1699 0.535645 28.8857V20.3143C0.535645 19.746 0.761409 19.2009 1.16327 18.7991C1.56514 18.3972 2.11018 18.1714 2.6785 18.1714H5.89279Z" fill="#A2A5AC"/>
</svg>
